# xmcd
#
# Track frame offsets: 
#        150
#        21180
#        36658
#        54853
#        68943
#        88985
#        105528
#        120545
#        135278
#        150923
#        170665
#        188475
#        203500
#        223693
#
# Disc length: 3254 seconds
#
# Revision: 2
# Processed by: cddbd v1.5.2PL0 Copyright (c) Steve Scherf et al.
# Submitted via: ExactAudioCopy v1.0b3
#
DISCID=b80cb40e
DTITLE=Fried Pride - two, too
DYEAR=2005
DGENRE=Jazz
TTITLE0=Kiss of Life
TTITLE1=Part-Time Lover
TTITLE2=We've Only Just Begun
TTITLE3=I Want to be Loved by You
TTITLE4=My Favorite Things
TTITLE5=Rainy Days and Mondays
TTITLE6=Lullaby of Birdland
TTITLE7=We'll be Toghether
TTITLE8=Feel Like Makin' Love
TTITLE9=What a Wonderful World
TTITLE10=Rio De Janeiro Blue
TTITLE11=Dig It!
TTITLE12=Baby I Love Your Way
TTITLE13=Over the Rainbow
EXTD=YEAR: 2005
EXTT0=
EXTT1=
EXTT2=
EXTT3=
EXTT4=
EXTT5=
EXTT6=
EXTT7=
EXTT8=
EXTT9=
EXTT10=
EXTT11=
EXTT12=
EXTT13=
PLAYORDER=
